<?xml version='1.0' encoding='utf-8'?>
<svg xmlns="http://www.w3.org/2000/svg" version="1.1" id="Ebene_1" x="0px" y="0px" viewBox="0 0 632.1 857.2" style="enable-background:new 0 0 632.1 857.2;"> <style type="text/css"> .st0{fill:#280022;} .st1{fill:#FCFCFB;} .st2{fill:#020000;} .st3{fill:#E8E7E5;} .st4{fill:#290122;} .st5{fill:#F69309;} .st6{fill:#F6930A;} </style> <path class="st0" d="M632.1,512.4c-0.3-15.9-4.4-30.9-12.4-44.7c-7.9-13.7-18-25.6-29.5-36.4c-1.8-1.7-3.6-3.3-2.9-6.4 c5.3-22.3,9-44.9,11.3-67.8c2.5-25.9,2-51.6-1.9-77.1c-3-20.2-7.5-40.1-11.4-60.2c-0.8-4.1-0.7-8.1,0.4-12.3 c6.5-24.3,11.8-48.8,13.6-73.9c2.5-35.2,0.8-70.2-8.3-104.4c-2.4-9.1-6-17.7-13.3-24.2c-9-8-17.4-6.5-22.9,4 c-0.6,1.2-1.2,2.4-1.7,3.6c-23.4,54.2-64,91.2-116.5,116.2c-1.6,0.8-3.2,1.3-5.2,0.3c-27.1-13.1-55.5-21.4-85.6-23.3 c-9.9-0.6-19.9-1.1-29.8-1.1c-9.9,0.1-19.8,0.5-29.8,1.1c-30.1,1.9-58.5,10.2-85.6,23.3c-2,1-3.5,0.5-5.2-0.3 C143,103.9,102.4,67,79,12.8c-0.5-1.2-1.1-2.4-1.7-3.6c-5.4-10.6-13.8-12.1-22.9-4c-7.3,6.5-10.9,15.1-13.3,24.2 C32,63.6,30.3,98.5,32.8,133.7c1.8,25.1,7.1,49.6,13.6,73.9c1.1,4.2,1.2,8.2,0.4,12.3c-3.8,20-8.3,40-11.4,60.2 c-3.8,25.6-4.3,51.3-1.9,77.1c2.2,22.9,6,45.4,11.3,67.8c0.7,3-1.1,4.6-2.9,6.4c-11.5,10.8-21.6,22.7-29.5,36.4 c-8,13.8-12.1,28.8-12.4,44.7c-0.6,30.1,5.4,59.2,13.5,87.9c9.2,32.9,25.4,62.5,45.7,89.7c24.9,33.4,55.5,60.9,90.9,83.1 c17.3,10.8,35.7,19.2,54.7,26.6c1.6-0.2,2.1-1.5,2.6-2.7c2.9-7.7,6.4-15.2,10.2-22.5c0.9-1.8,1.7-3.6,0.8-5.7 c-2.1-2.7-5.3-4-8.2-5.6c-44-25.8-71.8-62.6-76.7-114.3c-2.6-27.6,2.2-54.1,14-79.3c10.1-21.4,23.4-40.8,40.5-57.2 c28.4-27.3,62.5-43,101.6-48.2c8.8-1.2,17.6-1.8,26.3-2c8.8,0.2,17.6,0.8,26.3,2c39.1,5.1,73.2,20.9,101.6,48.2 c17.1,16.4,30.4,35.8,40.5,57.2c11.8,25.1,16.6,51.7,14,79.3c-4.9,51.8-32.7,88.6-76.7,114.3c-2.8,1.7-6,2.9-8.2,5.6 c-0.9,2.1-0.1,3.9,0.8,5.7c3.7,7.3,7.3,14.8,10.2,22.5c0.5,1.2,1,2.5,2.6,2.7c18.9-7.4,37.4-15.8,54.7-26.6 c35.4-22.1,66-49.6,90.9-83.1c20.3-27.2,36.5-56.8,45.7-89.7C626.6,571.5,632.7,542.4,632.1,512.4z"/> <path class="st1" d="M489.8,185.8c-36.5-21.9-92.4-17.7-120.1,10.1c-23.6,23.7-40.6,50.1-48.5,82.4c-2,8-3.4,16.1-5,25 c-1.7-9-3.1-17.1-5-25c-8-32.4-24.9-58.8-48.5-82.4c-27.7-27.8-83.6-31.9-120.1-10.1c-49,29.3-74.9,83.8-65.1,140 c7.1,40.6,31.2,68.9,67.6,87.3c46,23.4,100.6,9.3,132.3-23.8c3.6-3.7,7.4-7.2,10.3-11.5c2.9-2.4,3.4-6,4.7-9.2 c3.5-8.1,7.8-15.4,15.1-20.6c3.2-2.3,6-3.4,8.8-3.4c2.7,0,5.6,1.2,8.8,3.4c7.3,5.2,11.7,12.5,15.1,20.6c1.3,3.1,1.8,6.8,4.7,9.2 c2.9,4.3,6.7,7.8,10.3,11.5c31.8,33.1,86.3,47.1,132.3,23.8c36.4-18.5,60.5-46.7,67.6-87.3C564.7,269.6,538.7,215.1,489.8,185.8z"/> <path class="st2" d="M446.2,297c0,19.7-17.7,36.2-38.9,36.1c-20.3-0.1-37.8-17.2-37.9-36.9c0-20,17.4-36.1,38.8-36 C429.7,260.3,446.2,276.4,446.2,297z"/> <path class="st3" d="M403.2,308.5c-0.5,2.1-0.8,4.4-3.9,4.6c-2.9,0.1-4.4-1.4-4.6-4c-0.2-3,1.7-4.6,4.5-4.8 C401.8,304.1,402.9,305.9,403.2,308.5z"/> <path class="st4" d="M316.1,808c9.9-0.1,19.7-0.6,29.6-1.1c0-5,0-10-0.1-15.1c-2.4-1.9-5-1.2-7.6-0.9c-7.3,0.6-14.6,1.2-21.8,1.3 V808z"/> <path class="st2" d="M185.9,297c0,19.7,17.7,36.2,38.9,36.1c20.3-0.1,37.8-17.2,37.9-36.9c0-20-17.4-36.1-38.8-36 C202.4,260.3,185.9,276.4,185.9,297z"/> <path class="st3" d="M229,308.5c0.5,2.1,0.8,4.4,3.9,4.6c2.9,0.1,4.4-1.4,4.6-4c0.2-3-1.7-4.6-4.5-4.8 C230.3,304.1,229.2,305.9,229,308.5z"/> <path class="st4" d="M316.1,808c-9.9-0.1-19.7-0.6-29.6-1.1c0-5,0-10,0.1-15.1c2.4-1.9,5-1.2,7.6-0.9c7.3,0.6,14.6,1.2,21.8,1.3V808 z"/> <path class="st5" d="M332.4,353.5c-5.5-6.6-11.1-9.9-16.4-10.1c-5.3,0.2-10.8,3.5-16.4,10.1c-6.1,7.2-9.1,15.8-12.2,24.4 c3.1,19,9.3,27.8,20.1,48.9c0.7,1.3,5.1,9.6,6,10.8c0.9,1.3,1.7,2,2.6,1.9c0.8,0,1.6-0.7,2.6-1.9c0.9-1.2,5.3-9.5,6-10.8 c10.8-21.2,17-29.9,20.1-48.9C341.5,369.3,338.5,360.7,332.4,353.5z"/> <path class="st1" d="M499.2,616.7c-5.4-46.7-28.6-84.8-64.5-114.1c-36.3-29.6-76.5-43.3-118.6-43c-42-0.3-82.3,13.4-118.6,43 c-35.9,29.3-59.2,67.4-64.5,114.1c-6.5,56.4,13.5,102.1,59.3,136.2c8.3,6.2,17.4,11,26.1,16.6c21.8,10.5,44.6,17.8,68.3,22.2 c9.8,0.9,19.6,1.8,29.5,2c9.8-0.2,19.7-1.1,29.5-2c23.7-4.5,46.5-11.7,68.3-22.2c8.7-5.6,17.8-10.4,26.1-16.6 C485.6,718.8,505.6,673.1,499.2,616.7z"/> <path class="st6" d="M204.7,799.9c3.1-11,6.2-21.5,13.5-30.4c1.9-1.4,6.5-0.1,8.1,0.7c18.5,9,37.3,16.8,57.6,20.4 c1.5,0.3,3,0.6,3.6,2.3c0.4,5.5,0.7,9.5,0.2,15c-0.2,14.9-4.4,28.8-11.7,41.9c-1.2,2.2-2.5,4.8-4.3,6.4c-1.6,1.4-4,1.3-5.6,0 c-1.7-1.4-3-3.6-4.1-5.4c-5.5-8.6-7.9-14.7-11.4-24.3c-0.4-1-1.2-4.7-1.3-5.7c-0.1-0.7-0.4-3.3-0.5-4c-0.1-1.4-0.2-3-0.2-3.9 c-0.1-1.2-1.7-1.5-2.2-0.4c-1.2,2.4-1.7,4.8-2.8,7.2c-3.9,10.5-9.2,20.2-16.4,28.8c-2.8,3.3-5.7,8.1-9.8,7.7 c-3.8-0.4-4.3-6.1-5.6-9.7C206.6,831.5,202.6,815.9,204.7,799.9z"/> <path class="st6" d="M427.4,799.9c-3.1-11-6.2-21.5-13.5-30.4c-1.9-1.4-6.5-0.1-8.1,0.7c-18.5,9-37.3,16.8-57.6,20.4 c-1.5,0.3-3,0.6-3.6,2.3c-0.4,5.5-0.7,9.5-0.2,15c0.2,14.9,4.4,28.8,11.7,41.9c1.2,2.2,2.5,4.8,4.3,6.4c1.6,1.4,4,1.3,5.6,0 c1.7-1.4,3-3.6,4.1-5.4c5.5-8.6,7.9-14.7,11.4-24.3c0.4-1,1.2-4.7,1.3-5.7c0.1-0.7,0.4-3.3,0.5-4c0.1-1.4,0.2-3,0.2-3.9 c0.1-1.2,1.7-1.5,2.2-0.4c1.2,2.4,1.7,4.8,2.8,7.2c3.9,10.5,9.2,20.2,16.4,28.8c2.8,3.3,5.7,8.1,9.8,7.7c3.8-0.4,4.3-6.1,5.6-9.7 C425.5,831.5,429.5,815.9,427.4,799.9z"/> </svg>