<?xml version='1.0' encoding='utf-8'?>
<svg xmlns="http://www.w3.org/2000/svg" id="Camada_1" viewBox="0 0 800 800"><defs><style>.cls-1{fill:#fff;}.cls-2{stroke:#511812;stroke-width:2.1px;}.cls-2,.cls-3{fill:none;stroke-linecap:round;stroke-linejoin:round;}.cls-4{fill:#02569b;}.cls-5{fill:#2a2b2b;}.cls-3{stroke:#2a2b2b;stroke-width:4.2px;}.cls-6{fill:#d35271;}.cls-7{fill:#f5df4d;}.cls-8{fill:#e9a8b8;}.cls-9{fill:#8f522d;}.cls-10{fill:#e87647;}.cls-11{fill:#804722;}.cls-12{fill:#f2f2f2;}</style></defs><path class="cls-5" d="M423.78,458.69c2.52,1.7,5.48,2.61,8.21,3.8,14.99,6.72,29.48,11.26,43.07,14.24,.68,.14,1.37,.28,2.05,.42,2.74,.56,5.35,1,7.89,1.47,86.7,14.14,138.64-38.35,109.53-42.72-32.83-5.03-59.01-12.95-79.65-22.77-3.74-1.76-7.27-3.6-10.59-5.52-3.87-2.11-7.46-4.32-10.81-6.54-7.17-4.82-13.42-9.91-18.73-15.27-11.79-11.71-26.74-13.57-40.57-12.01-31.11,3.51-62.99,49.33-10.38,84.9Z"/><path class="cls-5" d="M183.54,515.52c-.65,8.28-.48,16.5,.44,24.53,8.8,77.67,87.81,141.21,185.5,139.81,38.78-.58,74.78-12.03,103.52-31.19,22.79-15.18,40.98-35.11,52.37-58.2,5.2-10.43,9.03-21.46,11.21-33.07,.28-1.61,.55-3.21,.67-4.77,1.41-8.47,1.78-16.9,1.39-25.2-.05-1.19-.19-2.33-.24-3.53-.56-8-1.87-15.87-3.93-23.61-2.57-9.79-6.27-19.28-11.05-28.37-2.64-5.09-5.66-10.15-8.99-14.99-.06-.13-.13-.2-.2-.27-.39-.66-.8-1.19-1.2-1.72-1.06-1.59-2.06-3.11-2.98-4.62-.8-1.13-1.53-2.25-2.26-3.37-.06-.13-.06-.19-.13-.26l-.07-.07c-5.85-9.54-10.41-19.49-13.92-29.66-.24-.71-.48-1.48-.72-2.19-3.06-9.26-5.06-18.69-6.24-28.24-.1-.63-.19-1.33-.21-2.02-.06-.19-.04-.44-.09-.76-1.45-13.71-1.09-27.58,.88-41.4,.29-1.86,.51-3.66,.66-5.59,.07-.87,.13-1.68,.13-2.56q0-.06,0-.12c2.74-57.47-53.07-107.28-123.35-106.29-55.27,.79-102.28,35.23-110.87,81.22-1.42,7.72-1.87,15.32-1.28,22.83,1.47,18.15-.04,36.33-5.1,53.53-2.43,8.26-5.66,16.34-9.84,24.09-2.97,5.65-6.44,11.08-10.41,16.34-2.41,3.26-5.03,6.37-7.87,9.47-20.37,22.2-33.44,49.67-35.85,80.24Z"/><path class="cls-12" d="M238.56,501.42c-1.17,14.81,.92,29.2,5.75,42.72,17.89,50.22,73.53,88.11,140.28,87.1,65.54-.99,121.02-42.02,131.37-96.9,.46-2.41,.85-4.83,1.11-7.25,2.78-24.24-3.23-47.47-15.65-67.62-.06-.12-.12-.18-.18-.24-1.18-1.97-2.44-3.89-3.77-5.76-.72-1.02-1.38-2.04-2.04-3.06-.12-.12-.19-.19-.18-.3-6.11-9.18-10.58-18.81-13.75-28.79-2.84-8.98-4.59-18.28-5.26-27.61-.05-.18-.04-.4-.08-.69-.66-9.5,12.98-75.07-11.73-93.48-24.27-18.08-53.76-8.55-56.6,17.34-.07,.85-1.42,.97-1.69,.15-9.1-27.45-43.72-46.91-74.44-29.47-19.28,10.89-34.15,31.22-37.76,50.68-1.15,6.11-1.43,12.18-1.01,18.01,1.75,21.98-1.99,43.99-12.75,63.28-3.59,6.49-8.03,12.68-13.31,18.47-16.12,17.56-26.41,39.28-28.31,63.42Z"/><path class="cls-8" d="M326.07,373.71c-2.29,3.19,.05,8.78,5.21,12.48,5.17,3.7,11.21,4.11,13.49,.91,2.29-3.19-.05-8.78-5.21-12.48-5.17-3.7-11.21-4.11-13.49-.91Z"/><path class="cls-8" d="M462.59,384.62c1.71,3.41-1.38,8.42-6.9,11.19s-11.38,2.24-13.09-1.18c-1.71-3.41,1.38-8.42,6.9-11.19,5.52-2.77,11.38-2.24,13.09,1.18Z"/><path class="cls-1" d="M406.65,348.36c-1.63,20.7-19.73,36.15-40.42,34.52-20.7-1.63-36.15-19.73-34.52-40.42,1.63-20.7,19.73-36.15,40.42-34.52,20.7,1.63,36.15,19.73,34.52,40.42Z"/><path class="cls-5" d="M397.89,360.16c-1.06,13.5-12.87,23.59-26.38,22.53-13.5-1.06-23.59-12.87-22.53-26.38,1.06-13.5,12.87-23.59,26.38-22.53,13.5,1.06,23.59,12.87,22.53,26.38Z"/><ellipse class="cls-1" cx="435.89" cy="349.88" rx="37.59" ry="25.52" transform="translate(52.89 756.97) rotate(-85.5)"/><path class="cls-5" d="M446.66,362.78c-1.01,12.84-9.79,22.62-19.61,21.85-9.82-.77-16.96-11.81-15.95-24.64,1.01-12.84,9.79-22.62,19.61-21.85,9.82,.77,16.96,11.81,15.95,24.64Z"/><path class="cls-10" d="M407.68,399.42c-6.5-.91-10.57-10.17-9.1-20.68,1.47-10.51,7.94-18.29,14.44-17.37,6.5,.91,15.72,9.6,14.25,20.11-1.47,10.51-13.09,18.86-19.59,17.95Z"/><path class="cls-2" d="M417.96,388.01c-2.8,.89-6,.43-8.42-1.23-2.43-1.66-4.03-4.46-4.22-7.4"/><path class="cls-3" d="M353.81,302.84c6.91-5.02,16.07-6.8,24.36-4.72"/><path class="cls-3" d="M456.92,309.82c-6.04-6.04-14.81-9.23-23.32-8.47"/><path class="cls-10" d="M260.28,573.94c-.53-1.77-1.34-3.59-2.91-4.56-1.96-1.2-4.6-.69-6.49,.62-1.89,1.31-3.21,3.27-4.52,5.16-.92,1.32-2.17,2.78-3.77,2.59-1.55-.18-2.45-1.82-2.89-3.32-.6-2-.85-4.09-1.57-6.05-.72-1.96-2.02-3.85-3.97-4.58-2.06-.77-4.44-.06-6.18,1.29-1.73,1.35-2.94,3.25-4.04,5.16-.77,1.33-1.54,2.72-2.76,3.66-1.21,.94-3.02,1.33-4.29,.47-1.69-1.13-1.68-3.73-3.15-5.14-1.57-1.52-4.34-1.04-5.91,.48s-2.77,3.74-3.23,5.88c-.87,3.97-1.01,8.9-1.02,12.96,0,1.26-.04,2.67,.08,4.05-.05,15.7,2.66,29.36,6.62,37.09,5.59,10.89,18.34,16.89,29.73,12.41,20.42-8.04,21.18-65.18,20.28-68.19Z"/><path class="cls-10" d="M488.76,577.46c.72-1.67,1.71-3.35,3.23-4.07,1.9-.9,4.14,0,5.61,1.58,1.47,1.57,2.34,3.71,3.21,5.77,.61,1.44,1.5,3.07,2.92,3.12,1.38,.05,2.42-1.44,3.03-2.85,.82-1.89,1.35-3.92,2.27-5.75,.92-1.83,2.34-3.51,4.16-3.94,1.92-.45,3.91,.6,5.23,2.19,1.32,1.59,2.1,3.65,2.79,5.69,.48,1.43,.95,2.92,1.88,4.03,.93,1.11,2.45,1.76,3.7,1.1,1.65-.87,2.03-3.43,3.53-4.62,1.61-1.27,3.96-.38,5.12,1.35,1.16,1.73,1.88,4.11,1.97,6.29,.18,4.05-.43,8.94-1.02,12.96-.18,1.25-.36,2.64-.67,3.99-2.27,15.53-6.67,28.63-11.3,35.68-6.51,9.94-18.6,13.98-27.94,7.87-16.74-10.96-8.96-67.55-7.73-70.39Z"/><path class="cls-6" d="M395.15,216.96s-29.75-51.25-64.51-46.09c-34.77,5.17-40.85,71.52-40.85,71.52l105.36-25.44Z"/><path class="cls-7" d="M384.37,201.63s24.12-2.25,28.19,28.38c0,0-8.24,14.48-59.15,24.9-50.67,10.37-68.03-1.48-68.03-1.48,0,0-13.39-29.34,10.2-39.86,1.27-.56,7.06,8.56,43.65,3.62,35.05-4.72,45.13-15.57,45.13-15.57Z"/><path class="cls-7" d="M304.42,156.06c-1.86,14.89,8.7,28.47,23.59,30.32,14.89,1.85,28.47-8.71,30.33-23.6,1.86-14.89-8.71-28.46-23.6-30.32-14.89-1.86-28.46,8.71-30.32,23.6Z"/><g><path class="cls-7" d="M234.55,524.65c5.39,22.49,18.5,43.3,37.53,56.95,16.76,12.02,39.35,17.16,58.56,9.64,25.83-10.12,41.76-33.82,68.38-41.66,14.56-4.29,30.7-1.21,44.9-6.58,19.43-7.34,30.31-29.4,30.02-50.17-.18-12.8-6.34-38.12-14.1-48.29-7.76-10.17-19.61-17.4-32.36-18.55-19.55-1.77-38.09,10.29-57.72,10.08-22.69-.24-41.19-10.42-63.73-13.01-21.94-2.52-44.13,9.05-57.39,26.71-16.37,21.81-20.18,49.42-14.09,74.88Z"/><path class="cls-4" d="M419.93,514.95c-12.16,16.82-35.65,20.6-52.47,8.44-16.82-12.16-20.6-35.65-8.44-52.47,12.16-16.82,35.65-20.6,52.47-8.44,16.82,12.16,20.6,35.65,8.44,52.47Z"/><path class="cls-11" d="M416.56,512.51c-10.82,14.96-31.71,18.32-46.67,7.51-14.96-10.82-18.32-31.71-7.51-46.67,10.82-14.96,31.71-18.32,46.67-7.51,14.96,10.82,18.32,31.71,7.51,46.67Z"/><g><polygon class="cls-11" points="518.92 451.34 525.01 483.64 410.56 504.46 405.87 474.22 518.92 451.34"/><rect class="cls-9" x="294.98" y="502" width="55.44" height="7.06" transform="translate(759.61 94.67) rotate(79.31)"/><path class="cls-6" d="M531.92,493.96l80.52-1.13c2.77-.04,4.84-2.57,4.33-5.3l-13.25-70.2c-.51-2.73-3.36-4.33-5.96-3.35l-75.39,28.3c-3.18,1.19-5.03,4.49-4.41,7.83l7.2,38.17c.63,3.33,3.56,5.73,6.96,5.68Z"/><g><path class="cls-9" d="M543.32,445.46c1.23-.67,1.77-2.11,1.17-3.41-2.43-5.17-9.04-18.93-9.04-18.93,.33-.22,3.61-2.45,4.5-3.71,.62-.88,.57-2.28-.18-3.07-.78-.82-1.96-1.1-3.01-.61-1.1,.51-2.04,1.39-3.01,2.12-.74,.56-6.31,4.28-10.73,6.11-1.24,.51-1.81,2.26-1.17,3.42,.7,1.29,2.09,1.71,3.42,1.17,1.99-.8,3.93-1.72,5.8-2.75,2.23,4.71,8.13,17.03,8.83,18.49,.58,1.2,2.2,1.82,3.41,1.17Z"/><path class="cls-9" d="M561.33,434.86c.57-.13,.98-.42,1.35-.88,.78-.98,.41-2.35,.17-3.47-.16-.77-3.97-18.86-4.23-20.11,.54-.23,1.08-.48,1.61-.74,1.54-.75,3.96-1.74,4.12-3.7,.05-.58-.12-1.16-.45-1.65-.54-.81-1.65-1.4-2.64-1.14-.94,.24-1.78,.85-2.64,1.29-1.76,.91-3.55,1.79-5.44,2.4-1.29,.41-2.6,.75-3.92,1.01-1.32,.26-2.37,1.64-2.05,3,.32,1.37,1.58,2.3,3,2.05,1.36-.24,2.71-.56,4.04-.95,1.14,5.49,4.34,21.94,5.52,22.57,.49,.26,1.01,.46,1.57,.33Z"/><path class="cls-9" d="M585.34,427.85c.03-.98-.83-8.75-.98-10.4-.31-3.32-1.35-11.99-1.47-13.01,.45,.03,4.18,.27,4.47,.23,.34-.04,.66-.18,.99-.29,.39-.13,.81-.57,1.04-.9,.34-.49,.47-1.07,.44-1.66-.03-.5-.16-.92-.44-1.34-.34-.52-.76-.79-1.32-1.06-.6-.28-10.14-.54-12.06-.59-1.31-.03-2.67,.89-2.72,2.31-.05,1.37,.9,2.6,2.31,2.72,.84,.07,1.69,.14,2.53,.21,.31,2.85,2.62,23.11,2.86,24.01,.28,1.07,1.14,1.83,2.27,1.77,1.04-.06,2.04-.9,2.08-2Z"/></g><g><path class="cls-9" d="M559.33,510.3c.67-.16,1.3-.54,1.66-1.13,.69-1.12,.34-2.51-.75-3.23-.65-.43-1.49-.47-2.25-.5-.64-.03-1.28-.05-1.92-.08,0-.05,.02-.58,.02-.79,0-.42,.13-14.81,.16-18.02,0-.69-.15-1.35-.62-1.88-.4-.46-1.09-.84-1.71-.87-1.29-.05-2.73,.9-2.75,2.33-.03,3.22-.24,18.28-.17,19.03-1.54-.06-3.07-.13-4.61-.19-1.28-.05-2.6,.88-2.65,2.25-.05,1.29,.87,2.6,2.25,2.65,3.63,.15,13.02,.51,13.33,.44Z"/><path class="cls-9" d="M584.77,508.1c.6-.88,.56-2.11-.1-2.94-1.14-1.42-3.34-.84-4.89-.73,.01-.23,.02-.45,.03-.68,.04-.74,.18-12.4,.06-15.33-.03-.68-.12-1.27-.59-1.81-.39-.44-1.05-.81-1.65-.83-.64-.02-1.33,.14-1.81,.59-.43,.41-.86,1.03-.83,1.65,.12,2.93-.13,16.28-.15,16.79-.68,.06-1.35,.11-2.03,.17-.54,.04-1.22,.53-1.5,.98-.28,.44-.41,.91-.38,1.44,.06,1.04,.96,2.25,2.12,2.21,3.38-.13,6.76-.27,10.13-.46,.64-.04,1.24-.53,1.59-1.04Z"/><path class="cls-9" d="M597.67,509.43c2.07-.47,10.31-2.36,10.82-2.49,.25-.07,.51-.13,.76-.2,.68-.18,1.14-.38,1.7-.81,.8-.6,1.01-1.81,.72-2.69-.33-1-1.15-1.55-2.16-1.72-.69-.12-4.33,.78-4.7,.87-.11-1.26-3.48-13.92-4.26-16.85-.17-.64-.47-1.2-1.04-1.58-.5-.34-1.25-.53-1.85-.39-1.23,.29-2.32,1.55-1.97,2.89,.76,2.93,4.46,16.62,4.64,17.04-1.21,.3-2.41,.6-3.62,.9-1.3,.32-2.37,1.59-2.04,2.99,.31,1.31,1.59,2.36,2.99,2.04Z"/></g><path class="cls-9" d="M592.23,439.29c-3.85,.85-49.95,12.21-52.09,12.77-2.37,.62-5.07,1.01-7.28,2.1-1.58,.78-2.51,2.61-2.21,4.34,.28,1.6,1.56,2.9,3.14,3.25,1.22,.27,2.51,.07,3.72-.26,3.11-.86,55.09-15.77,55.9-16.03,.83-.26,1.51-.57,2.01-1.32,.43-.64,.67-1.59,.49-2.35-.38-1.62-1.95-2.88-3.67-2.51Z"/><path class="cls-9" d="M597.72,465.45c-.78,0-56.52,5.39-57.97,5.53-1.13,.11-2.28,.32-3.27,.88-1.32,.76-2.08,2.18-2,3.7,.09,1.65,1.11,3.04,2.67,3.59,1.87,.66,4.03,.12,5.94-.11,6.42-.76,53.62-7.07,55.8-7.41,1.63-.26,2.89-2.05,2.51-3.67-.47-1.99-2-2.5-3.67-2.51Z"/></g></g><path class="cls-5" d="M209.8,496.78c1.95,2.33,4.54,4.03,6.84,5.93,12.54,10.6,25.21,18.97,37.45,25.59,.62,.32,1.24,.65,1.86,.97,2.47,1.29,4.86,2.44,7.18,3.6,79.41,37.56,143.84,1.48,117.07-10.77-30.16-13.91-53.13-28.76-70.25-43.9-3.1-2.73-5.99-5.47-8.65-8.23-3.13-3.1-5.97-6.22-8.58-9.28-5.56-6.62-10.15-13.24-13.78-19.86-8.1-14.51-21.94-20.44-35.67-22.76-30.87-5.23-74.18,29.99-33.46,78.72Z"/></svg>