<?xml version='1.0' encoding='utf-8'?>
<svg xmlns="http://www.w3.org/2000/svg" enable-background="new 0 0 3000 3000" version="1.1" viewBox="0 0 3e3 3e3"> <style type="text/css"> .st0{fill:#E09F50;} .st1{fill:#4E6883;} .st2{fill:#32404C;} .st3{fill:#C9B098;} .st4{fill:#44798D;} .st5{fill:#EEDFCD;} .st6{fill:#FFFFFF;} .st7{fill:#90A9B3;} </style> <path class="st0" d="m1630.6 2340.9c3 70.7 11.7 150.1 30.6 234.7 22.6 100.8 54.7 186.2 88 256.4 4.6 9.8 21.8 7.6 29.1-3.7 18.2-27.8 44.4-76.1 52.8-133.2 13.1 14.9 29.6 30.9 50.2 46.4 26.6 20 53.8 34.4 78.6 44.8 13.6 5.7 33.4-3.5 39.1-18.4 1.9-4.9 3.6-10.2 5-15.6 10-37.6 2-65.8-3.5-79.9 12.7 14 29.1 29.2 50.1 43.9 21.2 14.7 42.6 25.7 62.2 33.8 12.4 5.1 30.1-4.8 32.7-18.3 6.3-33.7 10.6-91.3-18.9-135.6 0 0 36.2 8.9 70.4 9.4 19 0.3 36.8-17.6 33.8-33.5-6.5-34.6-21.9-91.1-54.6-113.7 0 0 58.9 12.1 132.1-4 16.8-3.7 27.5-21.4 19.4-32.1-31.9-42.4-68.8-86.3-111.2-130.6-69.9-73-141.4-132.6-208.4-181.1l-377.5 230.3z"/> <path class="st1" d="m610.7 161.9c1.2 13.2-4 24.9-10.8 34.1-13.7 18.5-36.5 31.4-61.4 23-10.3-3.5-19.9-10.3-27.1-19.8-7.1-9.3-11.5-21-11.8-32.1-0.7-20.9 12.4-36.8 27.1-46 2-1.2 4-2.4 6.1-3.4 18.7-9.2 44.5-7.2 62.5 11.8 8.2 8.9 14.4 20.6 15.4 32.4z"/> <line class="st1" x1="559.4" x2="756.5" y1="173.4" y2="499.7"/> <rect class="st1" transform="matrix(.8558 -.5172 .5172 .8558 -79.225 388.84)" x="637.2" y="145.9" width="41.5" height="381.2"/> <path class="st2" d="m1467.9 2398.2 652.6-394.4 149.7 141.6c17.3 16.4 16.6 44.2-1.5 59.7-86.1 73.8-191.7 154-318 230.9-129.4 78.9-252.1 137.1-359.7 180.3-26.8 10.8-57.1-3.7-65.6-31.3-19.1-62.3-38.3-124.6-57.5-186.8z"/> <path class="st1" d="m1004.5 1703.6-29 15.1-39.6 25.1c-144.7 105.5-200.1 282.2-166 530.1 12.6 76.1 29.3 140.8 50.2 194 21.6 58.4 68.9 162.5 142 312.4 39.3 77 69.1 125.1 89.5 144.2 12.1 12.9 28.4 14.1 48.9 3.5 9.1-6 14.7-12.4 16.9-19.2 48.7-173.5 111.4-350.8 188.2-532-25.2-52.7-41.5-87.8-48.8-105.1v-0.2c-79.7-183.7-123.2-285.4-130.7-305.2 0.6 1.1 1.1 2.1 1.7 3.2-28.5-75.6-69.6-164.2-123.3-265.9z"/> <path class="st1" d="m1905.6 1499.3c-0.7-1-1.4-2-2.1-3 14 15.8 83.8 101.7 209.5 257.6l0.1 0.1c12 14.5 35.4 45.2 70.4 92.1 196.1 16.2 382.3 43.1 558.5 80.7 7.1 1.2 15.4-0.8 24.9-6.1 18.9-13.2 25.4-28.2 19.6-44.9-7.5-26.9-36.1-75.7-86.1-146.3-98.7-134.4-168.9-224.7-210.6-271-37.4-43.2-86.9-88.1-148.4-134.6-203.6-145.4-385.8-178.6-546.5-99.5l-40.6 23.4-26.8 18.7c65.1 94.9 124.5 172.5 178.1 232.8z"/> <path class="st3" d="m2178.9 1590.4c13 23.6 25.5 46.8 37.4 69.4 5.6 10.6 11.1 21.1 16.5 31.5l0.3 0.5c4.7 9.1 9.3 18.1 13.8 27 7.7 15.1 15.1 29.8 22.2 44.3 0.5 0.9 0.9 1.8 1.3 2.8 4.6 9.2 9 18.3 13.3 27.2 0.4 0.7 0.7 1.4 1 2.1 2 4.1 3.9 8.1 5.8 12.1 10.2 21.2 19.8 41.7 28.9 61.3 15.2 32.9 7 70.6-19.7 90.7-137.7 103.7-293.1 210.5-466.7 314.9-178.8 107.4-350.6 196.7-510.8 271-18.3 8.5-28.9 15.2-48.1-2.8-17.7-16.6-37.3-45.3-64.1-84.3l-0.2-0.3c-0.5-0.7-0.9-1.4-1.5-2.1-5.4-7.9-11.1-16.2-17.2-24.9l-1.5-2.1c-10-14.4-19.8-28.9-29-43-5.4-8.2-10.7-16.2-15.6-24-0.4-0.5-0.7-1.1-1-1.5-6.6-10.2-12.7-19.8-18.1-28.5-14.3-22.7-24-38.9-25.9-41.9-91.1-151.2-151.4-251.4-212.9-372.5-129.3-254.8-200.1-473.4-240.6-610-26.9-90.8-53.5-184.8-74-279.6-2.4-11.2-4.8-22.3-6.9-33.5-1.9-9.3-3.7-18.7-5.4-28.1-1.5-8.1-3-16.3-4.4-24.5-1-5.7-1.9-11.5-2.8-17.2-0.4-2.2-0.7-4.3-1-6.4-0.9-5.9-1.8-11.8-2.7-17.8-0.2-1.2-0.3-2.3-0.5-3.5-3.2-22.2-5.9-44.3-8-66.4-1-10.1-1.9-20.3-2.6-30.4-0.2-2.4-0.3-4.8-0.5-7.2-0.2-2.7-0.4-5.4-0.5-8.1-1.1-18.3-1.8-36.5-2-54.7-0.5-40.9 2.5-86.8 10.6-132.3 17.6-99.2 59.4-197 141.4-238.9 88.5-45.3 201-26.7 296.3 4.6 23.9 7.8 47.1 16.3 69.5 25.4 25.4 10.2 49.8 21.1 73.3 32.7 0.3 0.1 0.5 0.2 0.8 0.4 10.5 5.2 20.9 10.5 31.1 15.9 2.1 1.1 4.1 2.2 6.2 3.3 21.6 11.7 42.6 23.9 62.9 36.7 1.6 0.9 3.1 1.9 4.6 2.9 4.5 2.8 9 5.7 13.5 8.6 2.1 1.4 4.2 2.8 6.3 4.1 3 2 5.9 3.9 8.9 5.9 8.8 5.9 17.5 11.9 26.1 17.9 1.5 1.1 3.1 2.1 4.5 3.2 9.3 6.6 18.4 13.2 27.5 20 67.2 50.1 128.9 105 190.2 161.6 209.5 193.5 340.5 376.3 431.3 504.9 25 35.2 126.1 179.5 238.7 383.6z"/> <path class="st4" d="m1053.2 388.6c-22.4-9.1-45.5-17.5-69.5-25.4-95.3-31.2-207.8-49.8-296.3-4.6-82 42-123.8 139.8-141.4 239-5.4 30.2-8.5 60.6-9.8 89.6-0.1 2.1-0.2 4.2-0.3 6.2-0.1 1.7-0.1 3.3-0.2 4.9-0.1 2-0.1 4-0.2 6-0.2 8.7-0.2 17.2-0.1 25.5 0.2 18.2 0.9 36.4 2 54.7 0.2 2.7 0.3 5.4 0.5 8.1 54.4-15.1 113.5-35.5 175-63.4 181.1-82.1 310.7-195.7 396.7-289.2 5.8-6.3 11.5-12.5 16.9-18.6-23.5-11.6-47.9-22.6-73.3-32.8z"/> <path class="st5" d="m1057.3 560.9c-0.2-0.2-0.2-0.1 0 0z"/> <path class="st6" d="m1414.1 1236.3c5.3 61.1-24.6 105.4-32.6 117-45.2 65-135 102.3-213.3 78.2-52.7-16.2-82.9-54.8-93-68.2-24.2-32-39.4-72.2-40.8-110.3-2.6-71.6 42-126.2 92.1-157.6 6.7-4.2 13.6-8 20.7-11.6 63.7-31.3 152.1-24.3 213.7 41.5 13 14.2 48.1 51.8 53.2 111z"/> <path class="st6" d="m1791.4 1789.2c6.4 74.3-29.9 128.3-39.7 142.4-55 79.1-164.4 124.6-259.7 95.3-64.1-19.7-100.9-66.7-113.3-83.1-29.5-38.9-48-87.9-49.7-134.3-3.2-87.2 51.1-153.7 112.1-191.8 8.1-5.1 16.6-9.8 25.2-14.1 77.6-38.1 185.1-29.6 260.1 50.5 16.2 17.3 58.8 63.1 65 135.1z"/> <path class="st1" d="m1164.7 441c-173.8 273.4-409 369.7-623.7 389.2-1-10.1-1.9-20.3-2.6-30.4-0.2-2.4-0.3-4.8-0.5-7.2-0.2-2.7-0.4-5.4-0.5-8.1-1.1-18.3-1.8-36.5-2-54.7-0.5-40.9 2.5-86.8 10.6-132.3 17.6-99.2 59.4-197 141.4-238.9 88.5-45.3 201-26.7 296.3 4.6 23.9 7.8 47.1 16.3 69.5 25.4 25.4 10.2 49.8 21.1 73.3 32.7 0.3 0.1 0.5 0.2 0.8 0.4 10.5 5.2 20.9 10.5 31.1 15.9 2.1 1.2 4.2 2.2 6.3 3.4z"/> <path class="st7" d="m1781.2 1610c-102.7-109.7-244.1-112-338.7-65.5-11.1 5.6-22 11.6-32.3 18.1-45.4 28.4-150.5 109.7-145.3 250 2.2 59.7 25.7 123.2 64.4 174.2 41 54.1 90.6 90.3 147.3 107.8 59 18.1 126 15 188.7-8.9 18.6-7.1 36.4-15.8 53.3-26 38-23 70.8-53.3 95.3-88.4 38.8-55.8 57.2-121.7 51.6-185.6-8.2-94.4-63.5-153.4-84.3-175.7z"/> <path class="st6" d="m1796.6 1791.3c6.4 74.3-29.9 128.3-39.7 142.4-55 79.1-164.4 124.6-259.7 95.3-64.1-19.7-100.9-66.7-113.3-83.1-29.5-38.9-48-87.9-49.7-134.3-3.2-87.2 51.1-153.7 112.1-191.8 8.1-5.1 16.6-9.8 25.2-14.1 77.6-38.1 185.1-29.6 260.1 50.5 16.1 17.3 58.8 63.1 65 135.1z"/> <path class="st7" d="m1403.2 1083.9c-84.4-90.1-200.5-92-278.2-53.8-9.1 4.6-18.1 9.6-26.5 14.8-37.3 23.4-123.6 90.1-119.4 205.4 1.8 49 21.1 101.2 52.9 143.1 33.7 44.4 74.4 74.2 121 88.5 48.5 14.9 103.5 12.3 155-7.3 15.3-5.8 29.9-13 43.8-21.4 31.2-18.9 58.2-43.8 78.3-72.6 31.9-45.8 47-100 42.4-152.4-6.7-77.5-52.2-126-69.3-144.3z"/> <path class="st6" d="m1415.9 1232.8c5.3 61.1-24.6 105.4-32.6 117-45.2 65-135 102.3-213.3 78.2-52.7-16.2-82.9-54.8-93-68.2-24.2-32-39.4-72.2-40.8-110.3-2.6-71.6 42-126.2 92.1-157.6 6.7-4.2 13.6-8 20.7-11.6 63.7-31.3 152.1-24.3 213.7 41.5 13.1 14.3 48.1 51.8 53.2 111z"/> <path class="st6" d="m628.6 750.2c0.7 8.2-3.3 14.2-4.4 15.7-6.1 8.7-18.2 13.8-28.7 10.5-7.1-2.2-11.2-7.4-12.5-9.2-3.3-4.3-5.3-9.7-5.5-14.8-0.4-9.6 5.7-17 12.4-21.2 0.9-0.6 1.8-1.1 2.8-1.6 8.6-4.2 20.5-3.3 28.7 5.6 1.8 2 6.5 7.1 7.2 15z"/> <path class="st6" d="m792.2 708.7c0.7 8.2-3.3 14.2-4.4 15.7-6.1 8.7-18.2 13.8-28.7 10.5-7.1-2.2-11.2-7.4-12.5-9.2-3.3-4.3-5.3-9.7-5.5-14.8-0.4-9.6 5.7-17 12.4-21.2 0.9-0.6 1.8-1.1 2.8-1.6 8.6-4.2 20.5-3.3 28.7 5.6 1.8 2 6.5 7 7.2 15z"/> <path class="st6" d="m960 609.8c0.7 8.2-3.3 14.2-4.4 15.7-6.1 8.7-18.2 13.8-28.7 10.5-7.1-2.2-11.2-7.4-12.5-9.2-3.3-4.3-5.3-9.7-5.5-14.8-0.4-9.6 5.7-17 12.4-21.2 0.9-0.6 1.8-1.1 2.8-1.6 8.6-4.2 20.5-3.3 28.7 5.6 1.8 2 6.5 7 7.2 15z"/> <path class="st6" d="m1090.9 480.6c0.7 8.2-3.3 14.2-4.4 15.7-6.1 8.7-18.2 13.8-28.7 10.5-7.1-2.2-11.2-7.4-12.5-9.2-3.3-4.3-5.3-9.7-5.5-14.8-0.4-9.6 5.7-17 12.4-21.2 0.9-0.6 1.8-1.1 2.8-1.6 8.6-4.2 20.5-3.3 28.7 5.6 1.8 2 6.5 7 7.2 15z"/> </svg>